<?xml version="1.0" encoding="UTF-8"?>
<svg xmlns="http://www.w3.org/2000/svg" viewBox="0 0 286.37 386.6">
  <defs>
    <style>
      .cls-1, .cls-2 {
        stroke-width: 0px;
      }

      .cls-3 {
        stroke: #000;
        stroke-miterlimit: 10;
        stroke-width: 8px;
      }

      .cls-3, .cls-2 {
        fill: none;
      }
    </style>
  </defs>
  <g id="Laag_19" data-name="Laag 19">
    <rect class="cls-1" x="126.48" y="233.66" width="130.97" height="8.12" rx="3.86" ry="3.86"/>
    <path class="cls-1" d="m249.58,236l-45.06,55.36c-1.39,1.71-1.1,4.24.64,5.66h0c1.75,1.41,4.29,1.17,5.69-.54l45.06-55.36c1.39-1.71,1.1-4.24-.64-5.66h0c-1.75-1.41-4.29-1.17-5.69.54Z"/>
    <path class="cls-3" d="m61.48,293.73v-112.03c0-9.45,11.13-17.1,24.86-17.1h49.28"/>
    <path class="cls-1" d="m249.94,239.8l-45.06-55.36c-1.39-1.71-1.1-4.24.64-5.66h0c1.75-1.41,4.29-1.17,5.69.54l45.06,55.36c1.39,1.71,1.1,4.24-.64,5.66h0c-1.75,1.41-4.29,1.17-5.69-.54Z"/>
    <ellipse class="cls-1" cx="135.48" cy="164.6" rx="3" ry="4"/>
    <path class="cls-3" d="m61.73,182.37v112.03c0,9.45,11.13,17.1,24.86,17.1h49.28"/>
    <ellipse class="cls-1" cx="135.73" cy="311.51" rx="3" ry="4"/>
  </g>
  <g id="Laag_18" data-name="Laag 18">
    <rect class="cls-2" x="57.48" y="137.6" width="200" height="200"/>
  </g>
</svg>