<?xml version="1.0" encoding="UTF-8"?>
<svg id="Laag_11" xmlns="http://www.w3.org/2000/svg" viewBox="0 0 243.38 299.54">
  <defs>
    <style>
      .cls-1 {
        fill: none;
        stroke: #000;
        stroke-width: 8px;
      }
    </style>
  </defs>
  <g id="SVGRepo_iconCarrier">
    <path class="cls-1" d="M188.06,153.91c-10.24,0-14.67,7.79-20.23,7.79-14.79,0-1.33-43.45-1.33-43.45,0,0-48.39,19.72-48.39-.81,0-8.83,8.95-11.4,8.95-21.2,0-8.75-6.93-13.49-15.15-13.49s-16.36,4.66-16.36,13.89c0,10.2,7.82,14.61,7.82,20.15,0,17.16-43.36,7.07-43.36,7.07v82.15s44.04,10.12,44.04-7.07c0-5.54-9.86-9.89-9.86-20.08,0-9.23,7.21-13.89,15.67-13.89s15.23,4.74,15.23,13.49c0,9.8-8.95,12.37-8.95,21.2,0,14.99,31.97,6.34,44.68,6.34,0,0-8.56-29.61,6.37-29.61,8.87,0,11.44,8.91,21.28,8.91,8.79,0,13.54-6.91,13.54-15.18s-4.67-16.22-13.94-16.22Z"/>
  </g>
</svg>