<?xml version="1.0" encoding="UTF-8"?>
<svg xmlns="http://www.w3.org/2000/svg" viewBox="0 0 237 237">
  <defs>
    <style>
      .cls-1 {
        stroke: #000;
        stroke-width: 8px;
      }

      .cls-1, .cls-2 {
        fill: none;
      }

      .cls-2 {
        stroke-width: 0px;
      }
    </style>
  </defs>
  <g id="personalized">
    <g id="SVGRepo_iconCarrier" data-name="SVGRepo iconCarrier">
      <path class="cls-1" d="m184.09,126.51c-13.88,0-19.89,10.56-27.44,10.56-20.05,0-1.8-58.93-1.8-58.93,0,0-65.63,26.75-65.63-1.1,0-11.98,12.13-15.46,12.13-28.75,0-11.87-9.4-18.3-20.55-18.3s-22.19,6.32-22.19,18.84c0,13.83,10.6,19.82,10.6,27.33,0,23.28-58.81,9.58-58.81,9.58v111.42s59.73,13.72,59.73-9.58c0-7.51-13.37-13.41-13.37-27.24,0-12.52,9.78-18.84,21.26-18.84s20.66,6.43,20.66,18.3c0,13.29-12.13,16.77-12.13,28.75,0,20.33,43.36,8.6,60.6,8.6,0,0-11.61-40.16,8.64-40.16,12.02,0,15.52,12.09,28.86,12.09,11.92,0,18.36-9.37,18.36-20.58s-6.34-22-18.91-22Z"/>
    </g>
  </g>
  <g id="Laag_18" data-name="Laag 18">
    <rect class="cls-2" x="7" y="16" width="200" height="200"/>
  </g>
</svg>