<?xml version="1.0" encoding="UTF-8"?>
<svg xmlns="http://www.w3.org/2000/svg" viewBox="0 0 237 237">
  <defs>
    <style>
      .cls-1, .cls-2 {
        fill: none;
      }

      .cls-1, .cls-3 {
        stroke: #1675b6;
        stroke-miterlimit: 10;
        stroke-width: 8px;
      }

      .cls-2, .cls-4 {
        stroke-width: 0px;
      }

      .cls-4 {
        fill: #1675b6;
      }

      .cls-3 {
        fill: #fff;
      }
    </style>
  </defs>
  <g id="Laag_14" data-name="Laag 14">
    <g>
      <path class="cls-1" d="m184.3,158.17c13.31-5.79,18.58-20.73,18.58-33.83,0-27.23-30.54-49.31-68.22-49.31s-68.22,22.08-68.22,49.31,30.54,49.31,68.22,49.31c11.06,0,22.43.16,30.61-5.29"/>
      <path class="cls-1" d="m161.98,170.24s20.16,16.11,40.34,15.76c.57,0,.88-.68.52-1.13-3.36-4.18-15.16-19.28-14.07-24.35,0,0,.24-4.75.9-5.47"/>
      <path class="cls-4" d="m183.66,155.8c-.06.97.13,1.94.29,2.9.07.43.15.86.22,1.29s.12.88.26,1.29c.25.74,1.04,1.31,1.85,1.05.73-.24,1.32-1.05,1.05-1.85-.19-.57-.25-1.2-.35-1.79s-.22-1.23-.31-1.85l.05.4c-.06-.48-.1-.96-.07-1.44.05-.78-.72-1.53-1.5-1.5-.85.04-1.45.66-1.5,1.5h0Z"/>
      <path class="cls-4" d="m183.38,155.49c.33,2.68.88,5.32,1.71,7.89.24.75,1.05,1.3,1.85,1.05.75-.24,1.31-1.05,1.05-1.85-.39-1.2-.72-2.41-.99-3.64-.13-.6-.25-1.21-.36-1.81-.05-.3-.1-.61-.15-.91-.02-.14-.04-.28-.06-.42.05.32-.03-.25-.04-.31-.1-.78-.62-1.54-1.5-1.5-.73.03-1.6.67-1.5,1.5h0Z"/>
      <path class="cls-4" d="m184.84,157.5c1.93,0,1.93-3,0-3s-1.93,3,0,3h0Z"/>
      <path class="cls-3" d="m30.05,122.01c-13.31-5.79-18.58-20.73-18.58-33.83,0-27.23,30.54-49.31,68.22-49.31s68.22,22.08,68.22,49.31-30.54,49.31-68.22,49.31c-11.06,0-22.43.16-30.61-5.29"/>
      <path class="cls-1" d="m52.37,134.08s-20.16,16.11-40.34,15.76c-.57,0-.88-.68-.52-1.13,3.36-4.18,15.16-19.28,14.07-24.35,0,0-.24-4.75-.9-5.47"/>
      <path class="cls-4" d="m27.69,119.65c.03.48,0,.96-.07,1.44l.05-.4c-.09.62-.2,1.23-.31,1.85s-.15,1.22-.35,1.79c-.26.74.29,1.67,1.05,1.85.83.19,1.57-.25,1.85-1.05.14-.41.19-.86.26-1.29s.15-.86.22-1.29c.17-.95.35-1.93.29-2.9-.05-.78-.66-1.54-1.5-1.5-.77.03-1.55.66-1.5,1.5h0Z"/>
      <path class="cls-4" d="m27.96,119.33c-.01.09-.02.19-.04.28-.02.16-.02.19-.01.08.01-.11,0-.08-.01.08-.01.09-.03.19-.04.28-.04.28-.09.56-.14.84-.11.63-.23,1.26-.37,1.88-.27,1.23-.61,2.44-.99,3.64-.24.75.28,1.67,1.05,1.85.82.19,1.59-.25,1.85-1.05.83-2.57,1.38-5.21,1.71-7.89.1-.78-.76-1.53-1.5-1.5-.89.04-1.4.66-1.5,1.5h0Z"/>
      <path class="cls-4" d="m52.1,132.93c.05-.08.11-.16.17-.23l-.23.3c.08-.1.17-.21.26-.3.15-.14.25-.3.31-.48.09-.18.14-.37.13-.58,0-.21-.04-.4-.13-.58-.06-.19-.16-.35-.31-.48l-.3-.23c-.23-.14-.49-.2-.76-.2l-.4.05c-.25.07-.47.2-.66.39-.08.08-.15.17-.23.26-.15.19-.3.38-.43.58-.11.17-.17.36-.18.56-.04.2-.04.4.03.6.05.2.14.37.27.51.11.16.25.29.42.39l.36.15c.27.07.53.07.8,0l.36-.15c.23-.13.4-.31.54-.54h0Z"/>
      <path class="cls-4" d="m29.51,121.34c1.93,0,1.93-3,0-3s-1.93,3,0,3h0Z"/>
    </g>
  </g>
  <g id="Laag_18" data-name="Laag 18">
    <rect class="cls-2" x="7" y="16" width="200" height="200"/>
  </g>
</svg>